REM DIRINDEX 1\2,1\3\7,1\3\8,1\4\9,1\4\10,1\4\11,1\5\12,1\5\13,1\5\14,1\6\15,1\6\16,1\6\17
REM DIRNAME "folder01","folder02","folder03","folder04","folder05","folder06","folder07","folder08","folder09","folder10","folder11","folder12","folder13","folder14","folder15","folder16","folder17"
TITLE ""
FILE "2Q_k_051-060.mp3" MP3
  TRACK 01 AUDIO
    TITLE "12:cjc174_1525"
    INDEX 01 00:00:00
  TRACK 02 AUDIO
    TITLE "0:"
    INDEX 01 00:01:59
  TRACK 03 AUDIO
    TITLE "13:cjc174_1526"
    INDEX 01 00:02:31
  TRACK 04 AUDIO
    TITLE "0:"
    INDEX 01 00:04:69
  TRACK 05 AUDIO
    TITLE "14:cjc174_1527"
    INDEX 01 00:05:39
  TRACK 06 AUDIO
    TITLE "14:cjc174_1528"
    INDEX 01 00:08:35
  TRACK 07 AUDIO
    TITLE "0:"
    INDEX 01 00:12:41
  TRACK 08 AUDIO
    TITLE "12:cjc174_1529"
    INDEX 01 00:13:19
  TRACK 09 AUDIO
    TITLE "0:"
    INDEX 01 00:14:48
  TRACK 10 AUDIO
    TITLE "13:cjc174_1530"
    INDEX 01 00:15:18
  TRACK 11 AUDIO
    TITLE "0:"
    INDEX 01 00:17:42
  TRACK 12 AUDIO
    TITLE "14:cjc174_1531"
    INDEX 01 00:18:14
  TRACK 13 AUDIO
    TITLE "14:cjc174_1532"
    INDEX 01 00:21:22
  TRACK 14 AUDIO
    TITLE "0:"
    INDEX 01 00:25:06
  TRACK 15 AUDIO
    TITLE "12:cjc174_1533"
    INDEX 01 00:25:51
  TRACK 16 AUDIO
    TITLE "0:"
    INDEX 01 00:27:21
  TRACK 17 AUDIO
    TITLE "13:cjc174_1534"
    INDEX 01 00:27:66
  TRACK 18 AUDIO
    TITLE "0:"
    INDEX 01 00:30:02
  TRACK 19 AUDIO
    TITLE "14:cjc174_1535"
    INDEX 01 00:30:49
  TRACK 20 AUDIO
    TITLE "14:cjc174_1536"
    INDEX 01 00:33:59
  TRACK 21 AUDIO
    TITLE "0:"
    INDEX 01 00:36:28
  TRACK 22 AUDIO
    TITLE "12:cjc174_1537"
    INDEX 01 00:36:73
  TRACK 23 AUDIO
    TITLE "0:"
    INDEX 01 00:39:36
  TRACK 24 AUDIO
    TITLE "13:cjc174_1538"
    INDEX 01 00:40:06
  TRACK 25 AUDIO
    TITLE "0:"
    INDEX 01 00:42:05
  TRACK 26 AUDIO
    TITLE "14:cjc174_1539"
    INDEX 01 00:42:52
  TRACK 27 AUDIO
    TITLE "14:cjc174_1540"
    INDEX 01 00:46:06
  TRACK 28 AUDIO
    TITLE "0:"
    INDEX 01 00:50:08
  TRACK 29 AUDIO
    TITLE "12:cjc174_1541"
    INDEX 01 00:50:53
  TRACK 30 AUDIO
    TITLE "0:"
    INDEX 01 00:52:11
  TRACK 31 AUDIO
    TITLE "13:cjc174_1542"
    INDEX 01 00:52:58
  TRACK 32 AUDIO
    TITLE "0:"
    INDEX 01 00:54:24
  TRACK 33 AUDIO
    TITLE "14:cjc174_1543"
    INDEX 01 00:54:73
  TRACK 34 AUDIO
    TITLE "14:cjc174_1544"
    INDEX 01 00:58:10
  TRACK 35 AUDIO
    TITLE "0:"
    INDEX 01 01:02:31
  TRACK 36 AUDIO
    TITLE "12:cjc174_1545"
    INDEX 01 01:03:05
  TRACK 37 AUDIO
    TITLE "0:"
    INDEX 01 01:04:44
  TRACK 38 AUDIO
    TITLE "13:cjc174_1546"
    INDEX 01 01:05:16
  TRACK 39 AUDIO
    TITLE "0:"
    INDEX 01 01:07:52
  TRACK 40 AUDIO
    TITLE "14:cjc174_1547"
    INDEX 01 01:08:22
  TRACK 41 AUDIO
    TITLE "14:cjc174_1548"
    INDEX 01 01:11:08
  TRACK 42 AUDIO
    TITLE "0:"
    INDEX 01 01:15:20
  TRACK 43 AUDIO
    TITLE "12:cjc174_1549"
    INDEX 01 01:15:65
  TRACK 44 AUDIO
    TITLE "0:"
    INDEX 01 01:17:21
  TRACK 45 AUDIO
    TITLE "13:cjc174_1550"
    INDEX 01 01:17:68
  TRACK 46 AUDIO
    TITLE "0:"
    INDEX 01 01:19:39
  TRACK 47 AUDIO
    TITLE "14:cjc174_1551"
    INDEX 01 01:20:09
  TRACK 48 AUDIO
    TITLE "14:cjc174_1552"
    INDEX 01 01:23:31
  TRACK 49 AUDIO
    TITLE "0:"
    INDEX 01 01:27:70
  TRACK 50 AUDIO
    TITLE "12:cjc174_1553"
    INDEX 01 01:28:44
  TRACK 51 AUDIO
    TITLE "0:"
    INDEX 01 01:30:27
  TRACK 52 AUDIO
    TITLE "13:cjc174_1554"
    INDEX 01 01:31:01
  TRACK 53 AUDIO
    TITLE "0:"
    INDEX 01 01:32:30
  TRACK 54 AUDIO
    TITLE "14:cjc174_1555"
    INDEX 01 01:33:00
  TRACK 55 AUDIO
    TITLE "14:cjc174_1556"
    INDEX 01 01:35:60
  TRACK 56 AUDIO
    TITLE "0:"
    INDEX 01 01:40:53
  TRACK 57 AUDIO
    TITLE "12:cjc174_1557"
    INDEX 01 01:41:23
  TRACK 58 AUDIO
    TITLE "0:"
    INDEX 01 01:42:72
  TRACK 59 AUDIO
    TITLE "13:cjc174_1558"
    INDEX 01 01:43:42
  TRACK 60 AUDIO
    TITLE "0:"
    INDEX 01 01:45:03
  TRACK 61 AUDIO
    TITLE "14:cjc174_1559"
    INDEX 01 01:45:48
  TRACK 62 AUDIO
    TITLE "14:cjc174_1560"
    INDEX 01 01:47:59
  TRACK 63 AUDIO
    TITLE "0:"
    INDEX 01 01:49:31
  TRACK 64 AUDIO
    TITLE "12:cjc174_1561"
    INDEX 01 01:50:01
  TRACK 65 AUDIO
    TITLE "0:"
    INDEX 01 01:51:31
  TRACK 66 AUDIO
    TITLE "13:cjc174_1562"
    INDEX 01 01:52:07
  TRACK 67 AUDIO
    TITLE "0:"
    INDEX 01 01:53:44
  TRACK 68 AUDIO
    TITLE "14:cjc174_1563"
    INDEX 01 01:54:16
  TRACK 69 AUDIO
    TITLE "14:cjc174_1564"
    INDEX 01 01:56:38
  TRACK 70 AUDIO
    TITLE "0:"
    INDEX 01 01:57:69
